#!OML:ASF I:\Actors\actors\Patient Classification 2\Patient 1\Session 1\actor1.ASF
:FULLY-SPECIFIED
:DEGREES
486
root -0.384405 18.6319 5.79207 0.242734 3.72361 -4.96117
lowerback 22.639 1.86502 -2.61406
upperback -0.437895 1.93181 1.20632
thorax -13.3989 1.11868 2.21629
lowerneck -16.0876 -3.36812 -2.89442
upperneck 18.0871 -4.69799 3.75492
head 8.44267 -2.02767 1.17535
rclavicle 9.24349e-015 -1.59028e-014
rhumerus -43.299 -14.4324 -38.408
rradius 99.7212
rwrist -10.1
rhand 8.88174 -30.0867
rfingers 7.12502
rthumb 34.0649 -56.856
lclavicle 9.24349e-015 -1.59028e-014
lhumerus -32.7973 4.07049 66.2914
lradius 92.1441
lwrist 18.7734
lhand 5.1612 -31.7
lfingers 7.12502
lthumb 30.5237 -4.20887
rfemur 8.81188 -2.71479 17.7382
rtibia 4.77083e-015
rfoot -15.1452 -12.9759
rtoes -13.0591
lfemur -10.5348 -2.64979 -9.51543
ltibia 31.272
lfoot -20.13 4.41697
ltoes -57.9352
487
root -0.371495 18.627 5.76223 0.0890209 3.86722 -5.0556
lowerback 22.6225 1.93367 -2.66011
upperback -0.320392 2.01683 1.25228
thorax -13.2615 1.1599 2.26706
lowerneck -16.2411 -3.46596 -3.05371
upperneck 18.1873 -4.83596 3.95621
head 8.51864 -2.07951 1.24988
rclavicle -1.10325e-014 1.51076e-014
rhumerus -42.9036 -14.7925 -39.3488
rradius 101.536
rwrist -9.04015
rhand 8.93698 -30.7907
rfingers 7.12502
rthumb 34.1174 -57.5483
lclavicle -1.10325e-014 1.51076e-014
lhumerus -31.1449 2.4687 67.735
lradius 92.9584
lwrist 17.1991
lhand 5.65691 -31.3124
lfingers 7.12502
lthumb 30.9963 -3.91026
rfemur 8.88594 -2.84852 17.7596
rtibia -2.06736e-014
rfoot -15.119 -12.9424
rtoes -12.6366
lfemur -10.5315 -2.79042 -9.47452
ltibia 31.3028
lfoot -20.1343 4.41996
ltoes -57.7914
488
root -0.359116 18.6228 5.73064 -0.056052 3.99804 -5.15702
lowerback 22.6036 1.97875 -2.66706
upperback -0.196143 2.07641 1.26405
thorax -13.1107 1.185 2.2654
lowerneck -16.3506 -3.54216 -3.11611
upperneck 18.2109 -4.96335 4.14122
head 8.5581 -2.12257 1.30499
rclavicle 5.36719e-015 3.97569e-016
rhumerus -41.4426 -14.5716 -40.2533
rradius 102.189
rwrist -8.39521
rhand 8.44241 -31.2272
rfingers 7.12502
rthumb 33.6476 -58.0885
lclavicle 5.36719e-015 3.97569e-016
lhumerus -29.3988 0.981872 69.0135
lradius 93.6998
lwrist 15.6908
lhand 6.03176 -30.9506
lfingers 7.12502
lthumb 31.3536 -3.61715
rfemur 8.95277 -2.9708 17.7976
rtibia -1.43125e-014
rfoot -15.002 -12.9515
rtoes -12.801
lfemur -10.5389 -2.9509 -9.42518
ltibia 31.3276
lfoot -20.1791 4.46979
ltoes -57.7612
489
root -0.349492 18.6197 5.6974 -0.204918 4.11022 -5.21631
lowerback 22.6268 2.04236 -2.7524
upperback -0.0837608 2.13856 1.27537
thorax -13.0012 1.21697 2.30669
lowerneck -16.4403 -3.63126 -3.06208
upperneck 18.2424 -5.09903 4.14015
head 8.58885 -2.18098 1.27744
rclavicle -3.97569e-016 2.26615e-014
rhumerus -40.4541 -14.7766 -41.291
rradius 103.526
rwrist -8.01178
rhand 8.26404 -31.937
rfingers 7.12502
rthumb 33.478 -58.8351
lclavicle -3.97569e-016 2.26615e-014
lhumerus -27.6438 -0.369325 70.234
lradius 94.3704
lwrist 14.3412
lhand 6.3149 -30.6016
lfingers 7.12502
lthumb 31.6233 -3.32088
rfemur 9.02121 -3.0745 17.7937
rtibia 1.90833e-014
rfoot -14.8575 -12.9446
rtoes -12.9509
lfemur -10.5405 -3.03066 -9.40393
ltibia 31.345
lfoot -20.2046 4.42109
ltoes -57.7122
490
root -0.342009 18.616 5.6612 -0.408224 4.22886 -5.22449
lowerback 22.7596 2.11269 -2.90587
upperback 0.0239247 2.1897 1.296
thorax -12.9619 1.24926 2.39941
lowerneck -16.5138 -3.72753 -3.12346
upperneck 18.3181 -5.23601 4.22521
head 8.63744 -2.23864 1.29773
rclavicle -8.94531e-016 1.98785e-014
rhumerus -39.954 -15.2638 -42.4896
rradius 105.452
rwrist -7.61911
rhand 8.23099 -32.9822
rfingers 7.12502
rthumb 33.4466 -59.8871
lclavicle -8.94531e-016 1.98785e-014
lhumerus -25.9784 -1.50304 71.4619
lradius 95.0642
lwrist 13.0907
lhand 6.75413 -30.2331
lfingers 7.12502
lthumb 32.0416 -3.03554
rfemur 9.14419 -3.18206 17.7335
rtibia 6.36111e-015
rfoot -14.6673 -12.9294
rtoes -13.2207
lfemur -10.4831 -3.11042 -9.44122
ltibia 31.3532
lfoot -20.1865 4.38733
ltoes -57.6164
